<?xml version="1.0" encoding="UTF-8"?><svg id="a" xmlns="http://www.w3.org/2000/svg" viewBox="0 0 220.37 131.05"><defs><style>.b{fill:#ed1c24;}.c{fill:gray;}.d{fill:#4d4d4d;}</style></defs><g><circle class="b" cx="153.08" cy="84.71" r="4.12"/><circle class="b" cx="142.05" cy="78.19" r="4.12"/><circle class="b" cx="131.01" cy="71.67" r="4.12"/><circle class="b" cx="153.08" cy="71.86" r="4.12"/><circle class="b" cx="142.05" cy="65.34" r="4.12"/><circle class="b" cx="131.01" cy="58.82" r="4.12"/><circle class="b" cx="119.98" cy="52.3" r="4.12"/><circle class="b" cx="174.98" cy="84.71" r="4.12"/><circle class="b" cx="186.02" cy="78.19" r="4.12"/><circle class="b" cx="197.05" cy="71.67" r="4.12"/><circle class="b" cx="174.98" cy="71.86" r="4.12"/><circle class="b" cx="186.02" cy="65.34" r="4.12"/><circle class="b" cx="197.05" cy="58.82" r="4.12"/><circle class="b" cx="208.08" cy="52.3" r="4.12"/><g><circle cx="164.11" cy="91.23" r="4.12"/><circle cx="164.11" cy="78.38" r="4.12"/><circle cx="164.11" cy="65.34" r="4.12"/></g><circle class="d" cx="164.11" cy="129.79" r="1"/><circle class="d" cx="164.11" cy="1.26" r="1"/><circle class="d" cx="153.08" cy="97.57" r="2.06"/><circle class="d" cx="142.05" cy="91.05" r="2.06"/><circle class="d" cx="163.95" cy="104.08" r="2.06"/><circle class="d" cx="174.98" cy="97.57" r="2.06"/><circle class="d" cx="186.02" cy="91.05" r="2.06"/><g><circle class="c" cx="131.01" cy="84.53" r="2.06"/><circle class="c" cx="119.98" cy="78.01" r="2.06"/><circle class="c" cx="153.08" cy="59.01" r="2.06"/><circle class="c" cx="142.05" cy="52.49" r="2.06"/><circle class="c" cx="131.01" cy="45.97" r="2.06"/><circle class="c" cx="197.05" cy="84.53" r="2.06"/><circle class="c" cx="208.08" cy="78.01" r="2.06"/><circle class="c" cx="208.58" cy="65.15" r="2.06"/><circle class="c" cx="119.98" cy="65.34" r="2.06"/><circle class="c" cx="174.98" cy="59.01" r="2.06"/><circle class="c" cx="186.02" cy="52.49" r="2.06"/><circle class="c" cx="197.05" cy="45.97" r="2.06"/></g><path class="d" d="M164.11,102.02c-1.14,0-2.06,.92-2.06,2.06s.92,2.06,2.06,2.06,2.06-.92,2.06-2.06-.92-2.06-2.06-2.06Z"/><g><path class="c" d="M208.08,40.45c.55,0,1-.45,1-1s-.45-1-1-1-1,.45-1,1,.45,1,1,1Z"/><path class="c" d="M164.11,115.68s-.05,0-.08,0c-.03,0-.05,0-.08,0-.69,0-1.26,.56-1.26,1.26s.56,1.26,1.26,1.26c.03,0,.05,0,.08,0,.03,0,.05,0,.08,0,.69,0,1.26-.56,1.26-1.26s-.56-1.26-1.26-1.26Z"/><path class="c" d="M153.08,109.16c-.69,0-1.26,.56-1.26,1.26s.56,1.26,1.26,1.26,1.26-.56,1.26-1.26-.56-1.26-1.26-1.26Z"/><circle class="c" cx="142.05" cy="103.9" r="1.26"/><path class="c" d="M131.01,96.12c-.69,0-1.26,.56-1.26,1.26s.56,1.26,1.26,1.26,1.26-.56,1.26-1.26-.56-1.26-1.26-1.26Z"/><path class="c" d="M119.98,89.6c-.69,0-1.26,.56-1.26,1.26s.56,1.26,1.26,1.26,1.26-.56,1.26-1.26-.56-1.26-1.26-1.26Z"/><path class="c" d="M119.98,38.19c-.69,0-1.26,.56-1.26,1.26s.56,1.26,1.26,1.26,1.26-.56,1.26-1.26-.56-1.26-1.26-1.26Z"/><path class="c" d="M153.08,44.89c-.69,0-1.26,.56-1.26,1.26s.56,1.26,1.26,1.26,1.26-.56,1.26-1.26-.56-1.26-1.26-1.26Z"/><path class="c" d="M142.05,38.38c-.69,0-1.26,.56-1.26,1.26s.56,1.26,1.26,1.26,1.26-.56,1.26-1.26-.56-1.26-1.26-1.26Z"/><circle class="c" cx="131.01" cy="33.11" r="1.26"/><path class="c" d="M163.95,41.08s.05,0,.08,0c.03,0,.05,0,.08,0,.69,0,1.26-.56,1.26-1.26s-.56-1.26-1.26-1.26c-.03,0-.05,0-.08,0-.03,0-.05,0-.08,0-.69,0-1.26,.56-1.26,1.26s.56,1.26,1.26,1.26Z"/><circle class="c" cx="153.08" cy="33.3" r="1.26"/><path class="c" d="M142.05,25.52c-.69,0-1.26,.56-1.26,1.26s.56,1.26,1.26,1.26,1.26-.56,1.26-1.26-.56-1.26-1.26-1.26Z"/><path class="c" d="M163.95,28.22s.05,0,.08,0c.03,0,.05,0,.08,0,.69,0,1.26-.56,1.26-1.26s-.56-1.26-1.26-1.26c-.03,0-.05,0-.08,0-.03,0-.05,0-.08,0-.69,0-1.26,.56-1.26,1.26s.56,1.26,1.26,1.26Z"/><circle class="c" cx="153.08" cy="20.45" r="1.26"/><path class="c" d="M174.98,109.16c-.69,0-1.26,.56-1.26,1.26s.56,1.26,1.26,1.26,1.26-.56,1.26-1.26-.56-1.26-1.26-1.26Z"/><circle class="c" cx="186.02" cy="103.9" r="1.26"/><path class="c" d="M197.05,96.12c-.69,0-1.26,.56-1.26,1.26s.56,1.26,1.26,1.26,1.26-.56,1.26-1.26-.56-1.26-1.26-1.26Z"/><path class="c" d="M208.08,89.6c-.69,0-1.26,.56-1.26,1.26s.56,1.26,1.26,1.26,1.26-.56,1.26-1.26-.56-1.26-1.26-1.26Z"/><path class="c" d="M163.95,53.93c.69,0,1.26-.56,1.26-1.26s-.56-1.26-1.26-1.26-1.26,.56-1.26,1.26,.56,1.26,1.26,1.26Z"/><path class="c" d="M174.98,44.89c-.69,0-1.26,.56-1.26,1.26s.56,1.26,1.26,1.26,1.26-.56,1.26-1.26-.56-1.26-1.26-1.26Z"/><path class="c" d="M186.02,38.38c-.69,0-1.26,.56-1.26,1.26s.56,1.26,1.26,1.26,1.26-.56,1.26-1.26-.56-1.26-1.26-1.26Z"/><path class="c" d="M197.05,31.86c-.69,0-1.26,.56-1.26,1.26s.56,1.26,1.26,1.26,1.26-.56,1.26-1.26-.56-1.26-1.26-1.26Z"/><circle class="c" cx="174.98" cy="33.3" r="1.26"/><path class="c" d="M186.02,25.52c-.69,0-1.26,.56-1.26,1.26s.56,1.26,1.26,1.26,1.26-.56,1.26-1.26-.56-1.26-1.26-1.26Z"/><circle class="c" cx="174.98" cy="20.45" r="1.26"/><circle class="c" cx="163.95" cy="14.11" r="1.26"/></g><g><path d="M153.08,122.01c-.69,0-1.26,.56-1.26,1.26s.56,1.26,1.26,1.26,1.26-.56,1.26-1.26-.56-1.26-1.26-1.26Z"/><path d="M142.05,115.49c-.69,0-1.26,.56-1.26,1.26s.56,1.26,1.26,1.26,1.26-.56,1.26-1.26-.56-1.26-1.26-1.26Z"/><path d="M131.01,108.98c-.69,0-1.26,.56-1.26,1.26s.56,1.26,1.26,1.26,1.26-.56,1.26-1.26-.56-1.26-1.26-1.26Z"/><path d="M119.98,102.46c-.69,0-1.26,.56-1.26,1.26s.56,1.26,1.26,1.26,1.26-.56,1.26-1.26-.56-1.26-1.26-1.26Z"/><path d="M108.95,95.94c-.69,0-1.26,.56-1.26,1.26s.56,1.26,1.26,1.26,1.26-.56,1.26-1.26-.56-1.26-1.26-1.26Z"/><path d="M108.95,83.08c-.69,0-1.26,.56-1.26,1.26s.56,1.26,1.26,1.26,1.26-.56,1.26-1.26-.56-1.26-1.26-1.26Z"/><path d="M108.95,70.23c-.69,0-1.26,.56-1.26,1.26s.56,1.26,1.26,1.26,1.26-.56,1.26-1.26-.56-1.26-1.26-1.26Z"/><path d="M108.95,57.38c-.69,0-1.26,.56-1.26,1.26s.56,1.26,1.26,1.26,1.26-.56,1.26-1.26-.56-1.26-1.26-1.26Z"/><path d="M108.95,44.52c-.69,0-1.26,.56-1.26,1.26s.56,1.26,1.26,1.26,1.26-.56,1.26-1.26-.56-1.26-1.26-1.26Z"/><circle cx="108.95" cy="32.93" r="1.26"/><path d="M119.98,25.34c-.69,0-1.26,.56-1.26,1.26s.56,1.26,1.26,1.26,1.26-.56,1.26-1.26-.56-1.26-1.26-1.26Z"/><circle cx="131.01" cy="20.26" r="1.26"/><circle cx="142.05" cy="13.93" r="1.26"/><path d="M153.08,6.33c-.69,0-1.26,.56-1.26,1.26s.56,1.26,1.26,1.26,1.26-.56,1.26-1.26-.56-1.26-1.26-1.26Z"/><path d="M163.95,128.53c-.69,0-1.26,.56-1.26,1.26s.56,1.26,1.26,1.26,1.26-.56,1.26-1.26-.56-1.26-1.26-1.26Z"/><path d="M174.98,122.01c-.69,0-1.26,.56-1.26,1.26s.56,1.26,1.26,1.26,1.26-.56,1.26-1.26-.56-1.26-1.26-1.26Z"/><path d="M186.02,115.49c-.69,0-1.26,.56-1.26,1.26s.56,1.26,1.26,1.26,1.26-.56,1.26-1.26-.56-1.26-1.26-1.26Z"/><path d="M197.05,108.98c-.69,0-1.26,.56-1.26,1.26s.56,1.26,1.26,1.26,1.26-.56,1.26-1.26-.56-1.26-1.26-1.26Z"/><circle cx="208.08" cy="103.71" r="1.26"/><path d="M219.11,95.94c-.69,0-1.26,.56-1.26,1.26s.56,1.26,1.26,1.26,1.26-.56,1.26-1.26-.56-1.26-1.26-1.26Z"/><path d="M219.11,83.08c-.69,0-1.26,.56-1.26,1.26s.56,1.26,1.26,1.26,1.26-.56,1.26-1.26-.56-1.26-1.26-1.26Z"/><path d="M219.11,70.23c-.69,0-1.26,.56-1.26,1.26s.56,1.26,1.26,1.26,1.26-.56,1.26-1.26-.56-1.26-1.26-1.26Z"/><path d="M219.11,57.38c-.69,0-1.26,.56-1.26,1.26s.56,1.26,1.26,1.26,1.26-.56,1.26-1.26-.56-1.26-1.26-1.26Z"/><path d="M219.11,44.52c-.69,0-1.26,.56-1.26,1.26s.56,1.26,1.26,1.26,1.26-.56,1.26-1.26-.56-1.26-1.26-1.26Z"/><circle cx="219.11" cy="32.93" r="1.26"/><path d="M208.08,25.34c-.69,0-1.26,.56-1.26,1.26s.56,1.26,1.26,1.26,1.26-.56,1.26-1.26-.56-1.26-1.26-1.26Z"/><path d="M197.05,19c-.69,0-1.26,.56-1.26,1.26s.56,1.26,1.26,1.26,1.26-.56,1.26-1.26-.56-1.26-1.26-1.26Z"/><circle cx="186.02" cy="13.93" r="1.26"/><path d="M174.98,6.33c-.69,0-1.26,.56-1.26,1.26s.56,1.26,1.26,1.26,1.26-.56,1.26-1.26-.56-1.26-1.26-1.26Z"/><circle cx="163.95" cy="1.26" r="1.26"/></g><circle class="b" cx="186.02" cy="90.86" r="4.12"/><circle class="b" cx="174.98" cy="97.57" r="4.12"/><circle class="b" cx="153.08" cy="97.57" r="4.12"/><circle cx="163.95" cy="104.08" r="4.12"/><circle class="b" cx="163.95" cy="116.75" r="4.12"/><circle class="b" cx="142.05" cy="90.86" r="4.12"/></g><circle class="d" cx=".86" cy="8.58" r=".86"/></svg>